<?xml version="1.0" encoding="UTF-8" standalone="no"?>
<!DOCTYPE svg PUBLIC "-//W3C//DTD SVG 20010904//EN"
              "http://www.w3.org/TR/2001/REC-SVG-20010904/DTD/svg10.dtd">

<svg xmlns="http://www.w3.org/2000/svg"
     width="34.7mm" height="26mm"
     viewBox="0 0 2048 1536">
  <path id="Selection"
        fill="black" stroke="black" stroke-width="1"
        d="M 570.00,8.00
           C 570.00,8.00 575.00,7.00 575.00,7.00
             572.39,6.04 571.89,5.89 570.00,8.00 Z
           M 2032.00,16.00
           C 2032.00,16.00 2032.00,17.00 2032.00,17.00
             2032.00,17.00 2033.00,16.00 2033.00,16.00
             2033.00,16.00 2032.00,16.00 2032.00,16.00 Z
           M 491.00,74.65
           C 480.47,79.11 484.79,84.78 485.79,92.00
             486.48,96.93 485.74,101.93 487.87,106.91
             488.88,109.26 490.13,110.23 491.56,112.17
             491.56,112.17 496.22,119.00 496.22,119.00
             496.22,119.00 504.57,128.00 504.57,128.00
             507.32,131.78 506.56,133.61 507.58,135.70
             508.68,137.96 510.52,138.20 511.83,140.30
             511.83,140.30 514.08,147.00 514.08,147.00
             515.17,149.52 519.25,155.36 521.00,157.83
             521.00,157.83 529.89,169.16 529.89,169.16
             529.89,169.16 537.49,180.55 537.49,180.55
             537.49,180.55 545.91,187.58 545.91,187.58
             545.91,187.58 560.26,202.21 560.26,202.21
             560.26,202.21 578.52,225.72 578.52,225.72
             578.52,225.72 588.28,235.16 588.28,235.16
             588.28,235.16 593.56,238.50 593.56,238.50
             593.56,238.50 598.44,243.53 598.44,243.53
             598.44,243.53 610.92,253.36 610.92,253.36
             610.92,253.36 625.41,263.50 625.41,263.50
             625.41,263.50 636.48,276.00 636.48,276.00
             640.58,280.03 641.56,279.53 644.79,281.88
             648.14,284.31 646.66,284.75 653.58,289.10
             653.58,289.10 675.00,300.07 675.00,300.07
             675.00,300.07 688.91,307.46 688.91,307.46
             688.91,307.46 694.17,311.07 694.17,311.07
             694.17,311.07 698.91,313.28 698.91,313.28
             711.00,320.12 716.74,328.33 732.00,334.88
             734.13,335.79 748.06,338.16 753.72,340.88
             753.72,340.88 763.00,347.28 763.00,347.28
             763.00,347.28 770.00,350.12 770.00,350.12
             770.00,350.12 781.00,355.69 781.00,355.69
             781.00,355.69 794.00,364.01 794.00,364.01
             794.00,364.01 807.00,368.72 807.00,368.72
             807.00,368.72 816.00,373.60 816.00,373.60
             816.00,373.60 825.00,376.88 825.00,376.88
             825.00,376.88 839.17,385.72 839.17,385.72
             839.17,385.72 852.00,391.88 852.00,391.88
             852.00,391.88 874.00,404.60 874.00,404.60
             874.00,404.60 898.00,413.92 898.00,413.92
             898.00,413.92 905.00,418.25 905.00,418.25
             905.00,418.25 913.00,421.89 913.00,421.89
             913.00,421.89 923.00,427.96 923.00,427.96
             923.00,427.96 942.00,436.46 942.00,436.46
             942.00,436.46 951.00,441.10 951.00,441.10
             951.00,441.10 966.00,447.10 966.00,447.10
             966.00,447.10 979.00,453.46 979.00,453.46
             979.00,453.46 987.00,456.56 987.00,456.56
             987.00,456.56 995.00,460.92 995.00,460.92
             995.00,460.92 1003.00,463.42 1003.00,463.42
             1003.00,463.42 1026.00,472.89 1026.00,472.89
             1026.00,472.89 1052.00,481.29 1052.00,481.29
             1052.00,481.29 1059.00,482.92 1059.00,482.92
             1059.00,482.92 1072.00,488.97 1072.00,488.97
             1072.00,488.97 1079.00,490.83 1079.00,490.83
             1079.00,490.83 1098.00,498.13 1098.00,498.13
             1098.00,498.13 1107.00,499.99 1107.00,499.99
             1107.00,499.99 1122.00,506.17 1122.00,506.17
             1122.00,506.17 1130.00,510.19 1130.00,510.19
             1130.00,510.19 1161.00,513.43 1161.00,513.43
             1170.84,514.86 1172.11,518.50 1184.00,518.96
             1184.00,518.96 1197.00,518.01 1197.00,518.01
             1197.00,518.01 1212.00,518.97 1212.00,518.97
             1212.00,518.97 1242.00,523.57 1242.00,523.57
             1242.00,523.57 1249.00,524.21 1249.00,524.21
             1249.00,524.21 1257.00,525.90 1257.00,525.90
             1261.14,526.26 1263.32,525.40 1267.00,525.21
             1267.00,525.21 1281.00,526.14 1281.00,526.14
             1286.53,527.01 1287.20,529.08 1294.00,530.38
             1294.00,530.38 1305.00,531.22 1305.00,531.22
             1308.51,531.79 1310.00,533.29 1313.00,533.44
             1319.61,533.78 1326.13,527.05 1327.52,521.00
             1328.07,518.62 1329.03,512.22 1328.40,510.00
             1326.32,502.67 1318.14,500.30 1312.00,497.81
             1308.41,496.35 1308.18,495.80 1304.00,494.82
             1304.00,494.82 1294.00,492.82 1294.00,492.82
             1294.00,492.82 1287.00,490.41 1287.00,490.41
             1283.97,489.71 1282.43,490.36 1279.00,489.12
             1279.00,489.12 1266.00,483.17 1266.00,483.17
             1266.00,483.17 1250.00,477.76 1250.00,477.76
             1250.00,477.76 1239.96,476.71 1239.96,476.71
             1229.82,474.74 1219.82,472.65 1210.00,469.33
             1210.00,469.33 1189.91,460.31 1189.91,460.31
             1189.91,460.31 1182.00,459.41 1182.00,459.41
             1182.00,459.41 1166.00,454.30 1166.00,454.30
             1166.00,454.30 1150.00,450.65 1150.00,450.65
             1144.81,449.27 1145.42,447.69 1133.00,444.89
             1133.00,444.89 1122.00,443.63 1122.00,443.63
             1122.00,443.63 1098.01,437.47 1098.01,437.47
             1093.80,436.05 1093.66,434.42 1088.96,432.77
             1088.96,432.77 1078.00,430.20 1078.00,430.20
             1078.00,430.20 1048.00,420.36 1048.00,420.36
             1048.00,420.36 1026.00,413.81 1026.00,413.81
             1026.00,413.81 1018.00,410.50 1018.00,410.50
             1018.00,410.50 1006.42,407.77 1006.42,407.77
             1006.42,407.77 993.00,403.03 993.00,403.03
             993.00,403.03 983.00,400.53 983.00,400.53
             983.00,400.53 972.00,395.64 972.00,395.64
             972.00,395.64 964.00,393.08 964.00,393.08
             964.00,393.08 945.00,385.09 945.00,385.09
             945.00,385.09 921.00,375.55 921.00,375.55
             906.73,369.01 899.36,362.86 886.72,354.85
             886.72,354.85 880.00,351.28 880.00,351.28
             880.00,351.28 867.00,342.68 867.00,342.68
             867.00,342.68 850.83,333.24 850.83,333.24
             850.83,333.24 844.05,330.41 844.05,330.41
             840.60,328.49 840.23,326.74 837.74,325.58
             837.74,325.58 833.00,324.11 833.00,324.11
             833.00,324.11 822.00,318.74 822.00,318.74
             822.00,318.74 814.00,312.81 814.00,312.81
             814.00,312.81 798.72,303.81 798.72,303.81
             798.72,303.81 763.00,288.11 763.00,288.11
             763.00,288.11 740.72,274.87 740.72,274.87
             740.72,274.87 734.00,272.45 734.00,272.45
             734.00,272.45 711.00,260.68 711.00,260.68
             711.00,260.68 668.09,230.95 668.09,230.95
             668.09,230.95 658.58,223.41 658.58,223.41
             658.58,223.41 637.09,209.16 637.09,209.16
             637.09,209.16 630.68,202.59 630.68,202.59
             630.68,202.59 621.17,195.37 621.17,195.37
             621.17,195.37 611.72,186.51 611.72,186.51
             611.72,186.51 599.37,176.49 599.37,176.49
             599.37,176.49 581.92,158.34 581.92,158.34
             581.92,158.34 576.80,152.25 576.80,152.25
             567.51,143.24 558.81,139.32 548.59,127.72
             548.59,127.72 534.96,112.95 534.96,112.95
             534.96,112.95 521.74,97.58 521.74,97.58
             516.46,92.14 512.45,90.53 510.63,88.59
             506.84,84.52 503.44,72.39 491.00,74.65 Z
           M 496.00,76.00
           C 496.00,76.00 488.00,79.00 488.00,79.00
             488.00,79.00 496.00,76.00 496.00,76.00 Z
           M 498.00,77.00
           C 498.00,77.00 498.00,78.00 498.00,78.00
             498.00,78.00 497.00,77.00 497.00,77.00
             497.00,77.00 498.00,77.00 498.00,77.00 Z
           M 506.00,86.00
           C 506.00,86.00 506.00,87.00 506.00,87.00
             506.00,87.00 505.00,86.00 505.00,86.00
             505.00,86.00 506.00,86.00 506.00,86.00 Z
           M 508.00,89.00
           C 508.00,89.00 508.00,90.00 508.00,90.00
             508.00,90.00 507.00,89.00 507.00,89.00
             507.00,89.00 508.00,89.00 508.00,89.00 Z
           M 489.00,90.00
           C 489.00,90.00 489.00,91.00 489.00,91.00
             489.00,91.00 488.00,90.00 488.00,90.00
             488.00,90.00 489.00,90.00 489.00,90.00 Z
           M 490.00,91.00
           C 490.00,91.00 490.00,92.00 490.00,92.00
             490.00,92.00 489.00,91.00 489.00,91.00
             489.00,91.00 490.00,91.00 490.00,91.00 Z
           M 511.00,92.00
           C 511.00,92.00 511.00,93.00 511.00,93.00
             511.00,93.00 510.00,92.00 510.00,92.00
             510.00,92.00 511.00,92.00 511.00,92.00 Z
           M 515.00,94.00
           C 515.00,94.00 515.00,95.00 515.00,95.00
             515.00,95.00 514.00,94.00 514.00,94.00
             514.00,94.00 515.00,94.00 515.00,94.00 Z
           M 490.00,100.00
           C 490.00,100.00 490.00,101.00 490.00,101.00
             490.00,101.00 489.00,100.00 489.00,100.00
             489.00,100.00 490.00,100.00 490.00,100.00 Z
           M 490.00,103.00
           C 490.00,103.00 490.00,104.00 490.00,104.00
             490.00,104.00 489.00,103.00 489.00,103.00
             489.00,103.00 490.00,103.00 490.00,103.00 Z
           M 493.00,107.00
           C 493.00,107.00 493.00,108.00 493.00,108.00
             493.00,108.00 492.00,107.00 492.00,107.00
             492.00,107.00 493.00,107.00 493.00,107.00 Z
           M 510.00,135.00
           C 510.00,135.00 510.00,136.00 510.00,136.00
             510.00,136.00 509.00,135.00 509.00,135.00
             509.00,135.00 510.00,135.00 510.00,135.00 Z
           M 601.00,242.00
           C 601.00,242.00 601.00,243.00 601.00,243.00
             601.00,243.00 600.00,242.00 600.00,242.00
             600.00,242.00 601.00,242.00 601.00,242.00 Z
           M 903.00,536.00
           C 901.10,530.57 898.15,532.46 893.00,530.53
             893.00,530.53 882.58,526.21 882.58,526.21
             878.25,523.88 878.42,523.17 873.00,521.35
             873.00,521.35 861.00,516.71 861.00,516.71
             861.00,516.71 849.00,513.78 849.00,513.78
             849.00,513.78 841.00,510.63 841.00,510.63
             841.00,510.63 825.00,506.56 825.00,506.56
             825.00,506.56 811.00,500.01 811.00,500.01
             811.00,500.01 806.00,498.70 806.00,498.70
             800.80,497.00 791.76,492.82 787.01,490.00
             787.01,490.00 777.96,483.68 777.96,483.68
             777.96,483.68 765.09,478.71 765.09,478.71
             762.29,477.10 761.08,475.01 757.96,473.72
             757.96,473.72 741.00,469.52 741.00,469.52
             741.00,469.52 731.00,465.72 731.00,465.72
             731.00,465.72 713.00,460.78 713.00,460.78
             713.00,460.78 695.91,451.78 695.91,451.78
             695.91,451.78 678.00,445.15 678.00,445.15
             678.00,445.15 670.00,441.17 670.00,441.17
             670.00,441.17 663.00,438.74 663.00,438.74
             663.00,438.74 657.00,435.72 657.00,435.72
             657.00,435.72 649.00,433.50 649.00,433.50
             649.00,433.50 628.00,422.15 628.00,422.15
             628.00,422.15 620.00,419.56 620.00,419.56
             620.00,419.56 595.00,407.17 595.00,407.17
             595.00,407.17 584.01,402.70 584.01,402.70
             584.01,402.70 569.00,391.87 569.00,391.87
             569.00,391.87 545.28,376.39 545.28,376.39
             545.28,376.39 538.99,370.21 538.99,370.21
             538.99,370.21 533.45,365.67 533.45,365.67
             533.45,365.67 528.37,360.02 528.37,360.02
             528.37,360.02 520.17,353.75 520.17,353.75
             520.17,353.75 511.43,345.26 511.43,345.26
             511.43,345.26 503.92,339.82 503.92,339.82
             503.92,339.82 487.07,325.74 487.07,325.74
             487.07,325.74 476.54,314.13 476.54,314.13
             472.63,310.58 470.59,310.15 467.00,307.45
             467.00,307.45 453.43,295.82 453.43,295.82
             453.43,295.82 445.84,287.32 445.84,287.32
             445.84,287.32 433.01,276.95 433.01,276.95
             433.01,276.95 425.83,269.38 425.83,269.38
             422.34,266.31 409.54,259.35 405.00,259.22
             403.29,258.94 400.67,259.02 399.00,259.22
             389.06,261.55 387.50,272.34 389.30,281.00
             389.30,281.00 394.90,294.87 394.90,294.87
             396.58,298.01 397.44,297.87 399.34,300.26
             399.34,300.26 409.87,313.83 409.87,313.83
             409.87,313.83 419.86,323.00 419.86,323.00
             419.86,323.00 423.88,328.51 423.88,328.51
             423.88,328.51 428.42,332.41 428.42,332.41
             428.42,332.41 430.93,336.55 430.93,336.55
             430.93,336.55 436.66,342.76 436.66,342.76
             436.66,342.76 441.76,346.81 441.76,346.81
             441.76,346.81 452.05,356.29 452.05,356.29
             455.79,359.93 458.79,364.30 463.00,367.45
             463.00,367.45 472.00,372.55 472.00,372.55
             478.38,376.50 484.85,381.03 490.72,385.68
             490.72,385.68 512.26,405.13 512.26,405.13
             512.26,405.13 527.78,415.03 527.78,415.03
             527.78,415.03 532.26,419.29 532.26,419.29
             532.26,419.29 544.01,427.96 544.01,427.96
             544.01,427.96 570.72,441.86 570.72,441.86
             570.72,441.86 595.00,456.53 595.00,456.53
             599.09,458.62 599.47,457.09 603.28,459.20
             610.39,463.13 610.79,465.72 615.05,468.30
             615.05,468.30 635.00,479.64 635.00,479.64
             635.00,479.64 650.00,487.17 650.00,487.17
             650.00,487.17 671.00,499.32 671.00,499.32
             671.00,499.32 704.00,511.95 704.00,511.95
             704.00,511.95 713.00,516.51 713.00,516.51
             713.00,516.51 727.00,521.42 727.00,521.42
             727.00,521.42 735.00,525.27 735.00,525.27
             735.00,525.27 748.00,528.68 748.00,528.68
             748.00,528.68 768.00,536.07 768.00,536.07
             773.33,537.52 778.33,537.37 784.00,539.88
             784.00,539.88 790.00,542.86 790.00,542.86
             790.00,542.86 797.00,545.31 797.00,545.31
             809.33,550.94 814.94,554.69 829.00,555.60
             835.37,556.02 841.84,560.10 848.00,561.59
             848.00,561.59 867.00,564.45 867.00,564.45
             867.00,564.45 874.00,567.09 874.00,567.09
             874.00,567.09 891.83,572.52 891.83,572.52
             891.83,572.52 897.09,574.88 897.09,574.88
             897.09,574.88 908.00,577.66 908.00,577.66
             908.00,577.66 920.00,582.56 920.00,582.56
             920.00,582.56 941.00,587.05 941.00,587.05
             941.00,587.05 949.00,590.32 949.00,590.32
             949.00,590.32 965.00,595.29 965.00,595.29
             965.00,595.29 971.00,596.27 971.00,596.27
             971.00,596.27 983.00,599.54 983.00,599.54
             983.00,599.54 989.00,601.99 989.00,601.99
             989.00,601.99 1001.00,605.04 1001.00,605.04
             1001.00,605.04 1008.00,607.52 1008.00,607.52
             1008.00,607.52 1025.00,611.39 1025.00,611.39
             1025.00,611.39 1044.00,617.83 1044.00,617.83
             1044.00,617.83 1084.00,624.01 1084.00,624.01
             1084.00,624.01 1113.00,632.41 1113.00,632.41
             1113.00,632.41 1124.00,635.99 1124.00,635.99
             1136.56,638.71 1151.10,638.06 1164.00,637.85
             1164.00,637.85 1179.00,637.85 1179.00,637.85
             1179.00,637.85 1185.00,636.13 1185.00,636.13
             1185.00,636.13 1197.00,636.13 1197.00,636.13
             1208.57,635.98 1204.64,633.51 1213.00,632.02
             1213.00,632.02 1224.00,630.17 1224.00,630.17
             1228.01,629.77 1230.80,630.34 1235.00,629.30
             1241.97,627.57 1261.63,617.26 1267.83,613.16
             1275.93,607.80 1287.51,593.09 1276.89,584.57
             1271.19,579.99 1260.75,581.17 1254.00,581.83
             1244.55,582.76 1244.41,581.15 1234.00,584.52
             1234.00,584.52 1227.00,587.71 1227.00,587.71
             1220.64,590.65 1212.01,592.51 1205.00,592.91
             1205.00,592.91 1193.00,592.01 1193.00,592.01
             1193.00,592.01 1169.00,590.83 1169.00,590.83
             1169.00,590.83 1161.00,589.14 1161.00,589.14
             1161.00,589.14 1146.00,589.14 1146.00,589.14
             1146.00,589.14 1131.00,585.12 1131.00,585.12
             1131.00,585.12 1122.00,585.12 1122.00,585.12
             1122.00,585.12 1106.00,582.49 1106.00,582.49
             1106.00,582.49 1071.00,573.16 1071.00,573.16
             1071.00,573.16 1061.00,571.25 1061.00,571.25
             1061.00,571.25 1045.00,565.45 1045.00,565.45
             1045.00,565.45 1025.00,560.51 1025.00,560.51
             1025.00,560.51 1018.00,557.94 1018.00,557.94
             1018.00,557.94 1005.00,556.32 1005.00,556.32
             1005.00,556.32 998.00,554.37 998.00,554.37
             998.00,554.37 975.00,550.66 975.00,550.66
             970.83,549.87 970.34,548.52 963.00,547.43
             963.00,547.43 946.00,545.58 946.00,545.58
             931.36,543.49 917.94,536.04 903.00,536.00 Z
           M 408.00,264.00
           C 402.65,261.79 402.58,262.29 397.00,263.00
             400.47,260.75 406.06,259.33 408.00,264.00 Z
           M 410.00,263.00
           C 410.00,263.00 413.00,266.00 413.00,266.00
             413.00,266.00 409.00,264.00 409.00,264.00
             409.00,264.00 410.00,263.00 410.00,263.00 Z
           M 415.00,266.00
           C 415.00,266.00 415.00,267.00 415.00,267.00
             415.00,267.00 414.00,266.00 414.00,266.00
             414.00,266.00 415.00,266.00 415.00,266.00 Z
           M 420.00,268.00
           C 420.00,268.00 415.00,268.00 415.00,268.00
             415.00,268.00 420.00,268.00 420.00,268.00 Z
           M 422.00,269.00
           C 422.00,269.00 422.00,270.00 422.00,270.00
             422.00,270.00 421.00,269.00 421.00,269.00
             421.00,269.00 422.00,269.00 422.00,269.00 Z
           M 427.00,274.00
           C 427.00,274.00 427.00,275.00 427.00,275.00
             427.00,275.00 426.00,274.00 426.00,274.00
             426.00,274.00 427.00,274.00 427.00,274.00 Z
           M 428.00,275.00
           C 428.00,275.00 428.00,276.00 428.00,276.00
             428.00,276.00 427.00,275.00 427.00,275.00
             427.00,275.00 428.00,275.00 428.00,275.00 Z
           M 429.00,276.00
           C 429.00,276.00 429.00,277.00 429.00,277.00
             429.00,277.00 428.00,276.00 428.00,276.00
             428.00,276.00 429.00,276.00 429.00,276.00 Z
           M 430.00,277.00
           C 430.00,277.00 430.00,278.00 430.00,278.00
             430.00,278.00 429.00,277.00 429.00,277.00
             429.00,277.00 430.00,277.00 430.00,277.00 Z
           M 392.00,281.00
           C 392.00,281.00 392.00,282.00 392.00,282.00
             392.00,282.00 391.00,281.00 391.00,281.00
             391.00,281.00 392.00,281.00 392.00,281.00 Z
           M 394.00,283.00
           C 394.00,283.00 394.00,284.00 394.00,284.00
             394.00,284.00 393.00,283.00 393.00,283.00
             393.00,283.00 394.00,283.00 394.00,283.00 Z
           M 436.00,283.00
           C 436.00,283.00 436.00,284.00 436.00,284.00
             436.00,284.00 435.00,283.00 435.00,283.00
             435.00,283.00 436.00,283.00 436.00,283.00 Z
           M 441.00,286.00
           C 441.00,286.00 441.00,287.00 441.00,287.00
             441.00,287.00 440.00,286.00 440.00,286.00
             440.00,286.00 441.00,286.00 441.00,286.00 Z
           M 442.00,287.00
           C 442.00,287.00 442.00,288.00 442.00,288.00
             442.00,288.00 441.00,287.00 441.00,287.00
             441.00,287.00 442.00,287.00 442.00,287.00 Z
           M 444.00,288.00
           C 444.00,288.00 444.00,289.00 444.00,289.00
             444.00,289.00 443.00,288.00 443.00,288.00
             443.00,288.00 444.00,288.00 444.00,288.00 Z
           M 396.00,289.00
           C 396.00,289.00 396.00,290.00 396.00,290.00
             396.00,290.00 395.00,289.00 395.00,289.00
             395.00,289.00 396.00,289.00 396.00,289.00 Z
           M 445.00,289.00
           C 445.00,289.00 445.00,290.00 445.00,290.00
             445.00,290.00 444.00,289.00 444.00,289.00
             444.00,289.00 445.00,289.00 445.00,289.00 Z
           M 446.00,290.00
           C 446.00,290.00 446.00,291.00 446.00,291.00
             446.00,291.00 445.00,290.00 445.00,290.00
             445.00,290.00 446.00,290.00 446.00,290.00 Z
           M 397.00,291.00
           C 397.00,291.00 397.00,292.00 397.00,292.00
             397.00,292.00 396.00,291.00 396.00,291.00
             396.00,291.00 397.00,291.00 397.00,291.00 Z
           M 450.00,295.00
           C 450.00,295.00 450.00,296.00 450.00,296.00
             450.00,296.00 449.00,295.00 449.00,295.00
             449.00,295.00 450.00,295.00 450.00,295.00 Z
           M 1645.00,443.00
           C 1640.31,442.26 1623.47,443.24 1619.00,444.51
             1619.00,444.51 1607.28,448.91 1607.28,448.91
             1607.28,448.91 1602.91,451.36 1602.91,451.36
             1599.97,452.54 1598.07,451.83 1595.00,453.34
             1595.00,453.34 1586.00,459.28 1586.00,459.28
             1579.61,462.41 1572.84,465.11 1566.09,467.36
             1563.48,468.24 1560.60,468.15 1558.27,469.75
             1558.27,469.75 1553.91,473.52 1553.91,473.52
             1550.36,476.24 1549.12,475.90 1545.09,480.04
             1545.09,480.04 1529.68,500.00 1529.68,500.00
             1529.68,500.00 1515.70,515.22 1515.70,515.22
             1515.70,515.22 1501.03,535.09 1501.03,535.09
             1501.03,535.09 1490.54,556.00 1490.54,556.00
             1490.54,556.00 1488.74,562.00 1488.74,562.00
             1488.74,562.00 1485.06,570.00 1485.06,570.00
             1485.06,570.00 1483.44,579.00 1483.44,579.00
             1483.44,579.00 1475.74,596.00 1475.74,596.00
             1475.74,596.00 1474.25,602.00 1474.25,602.00
             1474.25,602.00 1471.61,609.00 1471.61,609.00
             1471.61,609.00 1470.21,615.00 1470.21,615.00
             1470.21,615.00 1460.82,638.99 1460.82,638.99
             1460.82,638.99 1459.79,643.58 1459.79,643.58
             1459.79,643.58 1455.95,653.00 1455.95,653.00
             1455.95,653.00 1446.59,669.00 1446.59,669.00
             1446.59,669.00 1443.97,676.00 1443.97,676.00
             1443.97,676.00 1438.59,687.00 1438.59,687.00
             1438.59,687.00 1435.41,696.00 1435.41,696.00
             1435.41,696.00 1423.09,722.00 1423.09,722.00
             1423.09,722.00 1414.87,744.00 1414.87,744.00
             1414.87,744.00 1411.72,759.25 1411.72,759.25
             1411.72,759.25 1407.97,766.09 1407.97,766.09
             1401.63,781.06 1394.82,795.91 1386.45,809.91
             1383.12,815.49 1377.32,821.09 1373.08,826.01
             1363.65,836.97 1354.84,844.12 1344.25,853.58
             1344.25,853.58 1331.83,865.25 1331.83,865.25
             1331.83,865.25 1318.00,873.46 1318.00,873.46
             1310.92,878.29 1304.52,884.66 1296.91,888.68
             1296.91,888.68 1282.00,893.73 1282.00,893.73
             1282.00,893.73 1276.00,894.68 1276.00,894.68
             1276.00,894.68 1253.00,903.22 1253.00,903.22
             1253.00,903.22 1246.00,905.23 1246.00,905.23
             1246.00,905.23 1238.00,909.20 1238.00,909.20
             1238.00,909.20 1222.00,914.42 1222.00,914.42
             1222.00,914.42 1216.00,917.17 1216.00,917.17
             1216.00,917.17 1211.09,918.57 1211.09,918.57
             1211.09,918.57 1203.96,922.94 1203.96,922.94
             1203.96,922.94 1186.00,929.29 1186.00,929.29
             1186.00,929.29 1178.00,930.79 1178.00,930.79
             1178.00,930.79 1171.00,933.46 1171.00,933.46
             1171.00,933.46 1153.00,938.83 1153.00,938.83
             1153.00,938.83 1127.00,943.30 1127.00,943.30
             1127.00,943.30 1107.16,951.87 1107.16,951.87
             1107.16,951.87 1100.96,952.91 1100.96,952.91
             1100.96,952.91 1084.00,957.74 1084.00,957.74
             1084.00,957.74 1066.00,960.52 1066.00,960.52
             1066.00,960.52 1055.00,963.43 1055.00,963.43
             1055.00,963.43 1047.00,964.85 1047.00,964.85
             1047.00,964.85 1028.00,971.50 1028.00,971.50
             1028.00,971.50 1015.00,975.92 1015.00,975.92
             1015.00,975.92 1006.00,979.94 1006.00,979.94
             1006.00,979.94 997.00,982.68 997.00,982.68
             997.00,982.68 985.00,988.12 985.00,988.12
             985.00,988.12 978.00,989.68 978.00,989.68
             978.00,989.68 967.00,994.17 967.00,994.17
             967.00,994.17 956.00,1000.03 956.00,1000.03
             956.00,1000.03 937.00,1006.16 937.00,1006.16
             937.00,1006.16 906.26,1020.50 906.26,1020.50
             903.36,1022.06 903.09,1024.40 897.00,1028.62
             897.00,1028.62 883.17,1036.67 883.17,1036.67
             883.17,1036.67 862.28,1055.95 862.28,1055.95
             862.28,1055.95 854.63,1064.56 854.63,1064.56
             854.63,1064.56 846.66,1070.96 846.66,1070.96
             846.66,1070.96 835.27,1082.14 835.27,1082.14
             835.27,1082.14 829.69,1086.54 829.69,1086.54
             829.69,1086.54 805.77,1112.58 805.77,1112.58
             805.77,1112.58 791.21,1128.09 791.21,1128.09
             791.21,1128.09 780.63,1142.00 780.63,1142.00
             780.63,1142.00 775.32,1151.00 775.32,1151.00
             775.32,1151.00 761.39,1172.00 761.39,1172.00
             748.82,1190.17 751.95,1187.11 742.47,1205.00
             740.17,1209.33 735.43,1218.36 735.14,1223.00
             734.97,1225.80 734.93,1231.56 736.18,1233.98
             738.93,1239.33 745.76,1240.32 750.28,1236.53
             754.79,1232.74 755.57,1227.80 758.56,1224.21
             758.56,1224.21 763.28,1219.63 763.28,1219.63
             763.28,1219.63 773.48,1204.00 773.48,1204.00
             773.48,1204.00 786.71,1188.74 786.71,1188.74
             786.71,1188.74 791.03,1180.00 791.03,1180.00
             792.64,1176.75 798.85,1166.96 801.17,1164.28
             801.17,1164.28 823.71,1139.43 823.71,1139.43
             823.71,1139.43 828.30,1133.57 828.30,1133.57
             828.30,1133.57 836.91,1125.00 836.91,1125.00
             836.91,1125.00 845.46,1114.26 845.46,1114.26
             845.46,1114.26 851.91,1108.89 851.91,1108.89
             851.91,1108.89 873.04,1089.33 873.04,1089.33
             873.04,1089.33 895.99,1073.10 895.99,1073.10
             895.99,1073.10 904.61,1065.75 904.61,1065.75
             912.65,1059.47 921.25,1053.51 930.00,1048.28
             930.00,1048.28 944.83,1040.91 944.83,1040.91
             944.83,1040.91 960.09,1028.97 960.09,1028.97
             960.09,1028.97 981.00,1017.19 981.00,1017.19
             981.00,1017.19 992.00,1012.36 992.00,1012.36
             992.00,1012.36 1019.00,1000.21 1019.00,1000.21
             1019.00,1000.21 1025.00,998.48 1025.00,998.48
             1025.00,998.48 1033.00,994.47 1033.00,994.47
             1033.00,994.47 1063.00,988.32 1063.00,988.32
             1063.00,988.32 1076.00,983.68 1076.00,983.68
             1076.00,983.68 1097.00,980.17 1097.00,980.17
             1097.00,980.17 1116.00,978.79 1116.00,978.79
             1116.00,978.79 1123.00,977.21 1123.00,977.21
             1123.00,977.21 1134.00,976.70 1134.00,976.70
             1134.00,976.70 1145.00,974.87 1145.00,974.87
             1145.00,974.87 1161.00,975.44 1161.00,975.44
             1161.00,975.44 1167.00,973.72 1167.00,973.72
             1167.00,973.72 1174.00,973.12 1174.00,973.12
             1174.00,973.12 1197.00,966.32 1197.00,966.32
             1197.00,966.32 1212.00,963.28 1212.00,963.28
             1212.00,963.28 1223.00,961.56 1223.00,961.56
             1223.00,961.56 1233.00,958.67 1233.00,958.67
             1233.00,958.67 1240.00,957.68 1240.00,957.68
             1240.00,957.68 1272.00,948.54 1272.00,948.54
             1272.00,948.54 1291.00,936.23 1291.00,936.23
             1291.00,936.23 1318.91,922.65 1318.91,922.65
             1318.91,922.65 1335.00,910.45 1335.00,910.45
             1335.00,910.45 1349.83,900.46 1349.83,900.46
             1356.09,895.45 1362.52,890.04 1367.82,884.00
             1367.82,884.00 1374.92,874.00 1374.92,874.00
             1374.92,874.00 1396.35,843.00 1396.35,843.00
             1396.35,843.00 1405.21,829.01 1405.21,829.01
             1405.21,829.01 1410.10,822.72 1410.10,822.72
             1410.10,822.72 1419.44,799.00 1419.44,799.00
             1419.44,799.00 1424.33,787.17 1424.33,787.17
             1424.33,787.17 1429.50,776.00 1429.50,776.00
             1429.50,776.00 1432.45,763.00 1432.45,763.00
             1432.45,763.00 1435.14,755.00 1435.14,755.00
             1435.14,755.00 1442.15,730.00 1442.15,730.00
             1442.15,730.00 1451.22,711.00 1451.22,711.00
             1451.22,711.00 1461.37,683.17 1461.37,683.17
             1461.37,683.17 1466.64,674.00 1466.64,674.00
             1466.64,674.00 1471.03,662.00 1471.03,662.00
             1471.03,662.00 1475.58,652.00 1475.58,652.00
             1475.58,652.00 1478.30,644.00 1478.30,644.00
             1478.30,644.00 1485.60,629.00 1485.60,629.00
             1485.60,629.00 1495.15,603.00 1495.15,603.00
             1495.15,603.00 1502.90,584.00 1502.90,584.00
             1502.90,584.00 1505.19,576.00 1505.19,576.00
             1505.19,576.00 1515.04,556.00 1515.04,556.00
             1517.88,550.09 1519.98,543.49 1523.68,538.00
             1526.77,533.42 1540.73,518.44 1545.09,514.09
             1548.41,510.77 1559.07,502.00 1563.00,499.35
             1563.00,499.35 1572.72,493.37 1572.72,493.37
             1572.72,493.37 1587.26,479.17 1587.26,479.17
             1589.43,477.55 1600.69,470.69 1603.00,469.81
             1603.00,469.81 1614.00,467.25 1614.00,467.25
             1621.93,464.73 1620.45,463.74 1631.00,461.69
             1631.00,461.69 1640.00,461.69 1640.00,461.69
             1648.09,460.10 1647.66,458.02 1658.00,458.00
             1661.97,457.99 1666.19,458.25 1670.00,456.99
             1674.34,455.56 1675.97,453.22 1681.00,453.38
             1681.00,453.38 1690.42,454.09 1690.42,454.09
             1696.31,455.30 1693.82,456.13 1701.99,455.98
             1712.41,455.77 1707.98,456.75 1715.00,457.55
             1720.88,458.22 1724.04,457.03 1729.00,457.03
             1739.97,457.03 1735.64,459.21 1749.00,456.51
             1749.00,456.51 1756.00,455.55 1756.00,455.55
             1756.00,455.55 1768.00,451.45 1768.00,451.45
             1770.88,450.56 1774.02,450.59 1775.83,447.72
             1777.67,444.79 1777.62,437.42 1772.89,435.63
             1772.89,435.63 1765.00,434.92 1765.00,434.92
             1759.44,434.04 1746.64,435.38 1740.96,436.73
             1740.96,436.73 1734.00,438.41 1734.00,438.41
             1730.05,439.39 1726.00,438.29 1722.00,438.41
             1722.00,438.41 1716.00,438.41 1716.00,438.41
             1716.00,438.41 1706.00,438.41 1706.00,438.41
             1698.75,437.39 1688.20,434.29 1681.00,436.00
             1677.52,430.46 1672.25,432.08 1667.00,434.00
             1664.34,427.96 1663.82,430.46 1659.58,426.69
             1659.58,426.69 1653.00,420.55 1653.00,420.55
             1653.00,420.55 1638.04,411.24 1638.04,411.24
             1630.78,405.69 1623.56,396.36 1617.00,390.04
             1617.00,390.04 1590.00,368.45 1590.00,368.45
             1590.00,368.45 1557.37,338.59 1557.37,338.59
             1552.59,333.66 1548.39,328.64 1542.83,324.46
             1542.83,324.46 1519.00,310.25 1519.00,310.25
             1514.93,308.05 1513.18,308.07 1509.00,306.91
             1497.95,303.87 1496.35,303.63 1485.00,302.28
             1485.00,302.28 1478.00,301.70 1478.00,301.70
             1478.00,301.70 1472.09,299.63 1472.09,299.63
             1472.09,299.63 1455.00,296.75 1455.00,296.75
             1448.16,295.55 1441.04,293.64 1434.00,294.06
             1427.05,294.47 1419.44,299.07 1413.00,301.14
             1403.10,304.32 1402.61,302.20 1398.00,304.07
             1398.00,304.07 1377.42,316.58 1377.42,316.58
             1377.42,316.58 1371.00,322.32 1371.00,322.32
             1371.00,322.32 1360.85,330.47 1360.85,330.47
             1360.85,330.47 1351.27,337.51 1351.27,337.51
             1344.88,343.38 1340.57,347.06 1335.22,354.00
             1335.22,354.00 1329.10,362.87 1329.10,362.87
             1329.10,362.87 1319.49,373.69 1319.49,373.69
             1317.33,376.80 1319.23,376.68 1314.79,383.01
             1314.79,383.01 1304.89,396.00 1304.89,396.00
             1304.89,396.00 1291.28,416.96 1291.28,416.96
             1291.28,416.96 1286.59,422.28 1286.59,422.28
             1286.59,422.28 1274.05,437.42 1274.05,437.42
             1270.41,441.76 1265.44,455.82 1270.51,460.40
             1272.70,462.38 1277.19,462.05 1280.00,461.99
             1287.31,461.81 1287.28,460.82 1293.09,457.44
             1309.12,448.12 1305.01,449.03 1317.96,437.43
             1317.96,437.43 1329.75,425.61 1329.75,425.61
             1329.75,425.61 1350.96,405.56 1350.96,405.56
             1350.96,405.56 1355.45,400.27 1355.45,400.27
             1358.33,397.33 1360.19,397.81 1366.87,391.28
             1366.87,391.28 1374.04,383.09 1374.04,383.09
             1374.04,383.09 1399.00,361.42 1399.00,361.42
             1399.00,361.42 1425.00,346.76 1425.00,346.76
             1425.00,346.76 1436.83,342.36 1436.83,342.36
             1436.83,342.36 1443.04,341.05 1443.04,341.05
             1449.77,338.47 1460.21,333.48 1467.00,332.18
             1475.53,330.53 1491.54,332.52 1500.00,334.56
             1503.91,335.50 1507.09,335.34 1510.99,337.21
             1510.99,337.21 1518.17,342.07 1518.17,342.07
             1518.17,342.07 1523.91,344.87 1523.91,344.87
             1523.91,344.87 1529.17,349.06 1529.17,349.06
             1529.17,349.06 1566.01,378.22 1566.01,378.22
             1566.01,378.22 1576.17,387.16 1576.17,387.16
             1576.17,387.16 1588.00,395.25 1588.00,395.25
             1588.00,395.25 1613.83,418.59 1613.83,418.59
             1613.83,418.59 1620.04,424.53 1620.04,424.53
             1620.04,424.53 1631.04,432.62 1631.04,432.62
             1637.18,436.37 1639.99,436.70 1645.00,443.00 Z
           M 402.00,297.00
           C 402.00,297.00 402.00,298.00 402.00,298.00
             402.00,298.00 401.00,297.00 401.00,297.00
             401.00,297.00 402.00,297.00 402.00,297.00 Z
           M 404.00,300.00
           C 404.00,300.00 404.00,301.00 404.00,301.00
             404.00,301.00 403.00,300.00 403.00,300.00
             403.00,300.00 404.00,300.00 404.00,300.00 Z
           M 404.00,302.00
           C 404.00,302.00 407.00,303.00 407.00,303.00
             407.00,303.00 403.00,303.00 403.00,303.00
             403.00,303.00 404.00,302.00 404.00,302.00 Z
           M 408.00,306.00
           C 408.00,306.00 408.00,307.00 408.00,307.00
             408.00,307.00 407.00,306.00 407.00,306.00
             407.00,306.00 408.00,306.00 408.00,306.00 Z
           M 410.00,307.00
           C 410.00,307.00 410.00,308.00 410.00,308.00
             410.00,308.00 409.00,307.00 409.00,307.00
             409.00,307.00 410.00,307.00 410.00,307.00 Z
           M 409.00,308.00
           C 409.00,308.00 409.00,309.00 409.00,309.00
             409.00,309.00 408.00,308.00 408.00,308.00
             408.00,308.00 409.00,308.00 409.00,308.00 Z
           M 413.00,311.00
           C 413.00,311.00 415.00,314.00 415.00,314.00
             413.03,313.29 412.21,313.23 413.00,311.00 Z
           M 417.00,315.00
           C 417.00,315.00 417.00,316.00 417.00,316.00
             417.00,316.00 416.00,315.00 416.00,315.00
             416.00,315.00 417.00,315.00 417.00,315.00 Z
           M 419.00,317.00
           C 419.00,317.00 419.00,318.00 419.00,318.00
             419.00,318.00 418.00,317.00 418.00,317.00
             418.00,317.00 419.00,317.00 419.00,317.00 Z
           M 420.00,318.00
           C 420.00,318.00 420.00,319.00 420.00,319.00
             420.00,319.00 419.00,318.00 419.00,318.00
             419.00,318.00 420.00,318.00 420.00,318.00 Z
           M 421.00,319.00
           C 421.00,319.00 421.00,320.00 421.00,320.00
             421.00,320.00 420.00,319.00 420.00,319.00
             420.00,319.00 421.00,319.00 421.00,319.00 Z
           M 1475.00,403.46
           C 1468.92,404.82 1463.90,407.03 1460.05,412.21
             1457.29,415.93 1456.68,420.48 1456.30,425.00
             1456.01,428.59 1456.63,429.74 1457.85,433.00
             1461.54,442.81 1468.37,449.12 1479.00,450.38
             1487.24,451.36 1491.81,448.02 1497.25,442.42
             1499.35,440.26 1501.69,438.09 1502.20,435.00
             1502.66,433.34 1502.21,430.76 1502.20,429.00
             1501.40,419.75 1496.83,408.60 1488.00,404.17
             1484.52,402.43 1478.78,402.94 1475.00,403.46 Z
           M 1318.47,568.02
           C 1311.88,574.34 1311.93,576.36 1309.13,584.00
             1309.13,584.00 1304.87,595.00 1304.87,595.00
             1304.87,595.00 1299.16,615.00 1299.16,615.00
             1299.16,615.00 1281.52,649.00 1281.52,649.00
             1281.52,649.00 1278.75,656.00 1278.75,656.00
             1278.75,656.00 1250.83,705.91 1250.83,705.91
             1250.83,705.91 1245.91,712.09 1245.91,712.09
             1245.91,712.09 1236.56,725.00 1236.56,725.00
             1236.56,725.00 1198.00,762.74 1198.00,762.74
             1198.00,762.74 1183.72,773.34 1183.72,773.34
             1183.72,773.34 1175.04,778.84 1175.04,778.84
             1170.82,782.16 1168.56,785.32 1164.91,788.93
             1164.91,788.93 1134.00,817.63 1134.00,817.63
             1134.00,817.63 1116.00,830.21 1116.00,830.21
             1116.00,830.21 1109.00,833.63 1109.00,833.63
             1109.00,833.63 1089.00,846.87 1089.00,846.87
             1083.45,850.64 1076.85,851.84 1071.00,854.75
             1071.00,854.75 1061.00,860.15 1061.00,860.15
             1061.00,860.15 1039.00,866.92 1039.00,866.92
             1039.00,866.92 1005.00,877.55 1005.00,877.55
             1005.00,877.55 992.00,879.88 992.00,879.88
             992.00,879.88 975.00,882.59 975.00,882.59
             975.00,882.59 967.00,884.78 967.00,884.78
             962.74,885.91 958.68,887.18 957.45,892.02
             957.04,893.61 957.19,895.39 957.45,897.00
             957.74,898.79 958.25,901.10 959.58,902.41
             961.55,904.33 971.05,905.80 974.00,905.97
             974.00,905.97 992.00,907.87 992.00,907.87
             992.00,907.87 1012.00,903.10 1012.00,903.10
             1012.00,903.10 1026.00,900.51 1026.00,900.51
             1026.00,900.51 1034.00,899.46 1034.00,899.46
             1034.00,899.46 1051.00,892.87 1051.00,892.87
             1051.00,892.87 1063.00,890.28 1063.00,890.28
             1063.00,890.28 1069.00,886.96 1069.00,886.96
             1069.00,886.96 1075.00,884.79 1075.00,884.79
             1075.00,884.79 1098.00,873.79 1098.00,873.79
             1098.00,873.79 1116.83,865.55 1116.83,865.55
             1116.83,865.55 1124.01,860.84 1124.01,860.84
             1124.01,860.84 1146.83,850.82 1146.83,850.82
             1146.83,850.82 1153.04,846.32 1153.04,846.32
             1153.04,846.32 1167.00,837.51 1167.00,837.51
             1167.00,837.51 1178.00,828.25 1178.00,828.25
             1178.00,828.25 1193.00,816.29 1193.00,816.29
             1193.00,816.29 1204.00,808.64 1204.00,808.64
             1204.00,808.64 1215.09,798.80 1215.09,798.80
             1224.11,791.08 1226.32,791.28 1234.85,781.00
             1238.32,776.81 1237.89,776.10 1239.89,773.28
             1239.89,773.28 1246.15,766.00 1246.15,766.00
             1246.15,766.00 1249.27,759.00 1249.27,759.00
             1249.27,759.00 1254.08,752.00 1254.08,752.00
             1254.08,752.00 1256.80,746.00 1256.80,746.00
             1256.80,746.00 1271.09,725.00 1271.09,725.00
             1271.09,725.00 1278.29,713.00 1278.29,713.00
             1278.29,713.00 1283.82,701.00 1283.82,701.00
             1283.82,701.00 1290.46,690.00 1290.46,690.00
             1290.46,690.00 1295.36,683.00 1295.36,683.00
             1297.43,679.32 1296.68,678.12 1300.64,672.01
             1305.48,664.55 1313.19,653.28 1316.00,645.00
             1316.00,645.00 1322.96,627.00 1322.96,627.00
             1324.28,623.30 1324.71,619.51 1326.54,616.00
             1330.93,607.58 1337.02,601.37 1336.37,591.00
             1335.81,581.95 1340.10,567.59 1326.00,567.02
             1322.79,566.89 1321.44,566.84 1318.47,568.02 Z
           M 669.00,655.00
           C 670.86,660.26 672.58,657.56 678.00,659.48
             678.00,659.48 694.00,664.56 694.00,664.56
             699.97,666.76 701.15,669.61 708.00,668.00
             710.47,671.70 712.06,670.61 716.00,671.72
             716.00,671.72 735.00,677.00 735.00,677.00
             735.00,677.00 753.00,683.41 753.00,683.41
             753.00,683.41 778.00,689.50 778.00,689.50
             778.00,689.50 788.00,692.48 788.00,692.48
             788.00,692.48 814.00,696.10 814.00,696.10
             814.00,696.10 834.00,701.41 834.00,701.41
             834.00,701.41 842.00,702.92 842.00,702.92
             842.00,702.92 851.00,705.68 851.00,705.68
             851.00,705.68 875.00,708.09 875.00,708.09
             875.00,708.09 890.00,709.91 890.00,709.91
             890.00,709.91 900.00,709.34 900.00,709.34
             900.00,709.34 913.00,710.96 913.00,710.96
             913.00,710.96 923.00,710.96 923.00,710.96
             923.00,710.96 945.00,715.85 945.00,715.85
             945.00,715.85 963.00,715.85 963.00,715.85
             963.00,715.85 973.00,714.96 973.00,714.96
             973.00,714.96 981.00,714.96 981.00,714.96
             981.00,714.96 990.00,713.70 990.00,713.70
             990.00,713.70 1036.00,708.56 1036.00,708.56
             1036.00,708.56 1046.00,706.32 1046.00,706.32
             1046.00,706.32 1057.00,705.55 1057.00,705.55
             1057.00,705.55 1072.00,702.22 1072.00,702.22
             1080.46,699.51 1078.46,699.20 1089.00,697.00
             1089.00,697.00 1101.00,693.34 1101.00,693.34
             1101.00,693.34 1112.00,690.62 1112.00,690.62
             1112.00,690.62 1119.00,689.46 1119.00,689.46
             1119.00,689.46 1132.00,685.19 1132.00,685.19
             1132.00,685.19 1140.00,684.13 1140.00,684.13
             1140.00,684.13 1146.92,681.45 1146.92,681.45
             1146.92,681.45 1153.09,680.18 1153.09,680.18
             1153.09,680.18 1162.00,676.38 1162.00,676.38
             1162.00,676.38 1170.00,674.56 1170.00,674.56
             1170.00,674.56 1178.00,671.71 1178.00,671.71
             1185.63,668.69 1202.89,663.14 1202.64,653.00
             1202.58,650.34 1201.60,648.59 1199.89,646.62
             1193.44,639.16 1184.23,642.73 1176.00,644.74
             1176.00,644.74 1158.00,648.75 1158.00,648.75
             1158.00,648.75 1149.00,651.55 1149.00,651.55
             1149.00,651.55 1142.00,652.78 1142.00,652.78
             1142.00,652.78 1134.00,655.47 1134.00,655.47
             1134.00,655.47 1126.00,656.67 1126.00,656.67
             1112.22,659.61 1098.47,662.65 1084.28,662.25
             1078.04,662.07 1073.77,664.61 1068.00,665.28
             1068.00,665.28 1059.00,665.28 1059.00,665.28
             1059.00,665.28 1049.28,666.12 1049.28,666.12
             1049.28,666.12 1042.99,665.57 1042.99,665.57
             1042.99,665.57 1036.00,665.57 1036.00,665.57
             1036.00,665.57 1016.00,663.94 1016.00,663.94
             1016.00,663.94 1007.00,663.94 1007.00,663.94
             1007.00,663.94 1001.00,662.37 1001.00,662.37
             1001.00,662.37 982.00,659.89 982.00,659.89
             982.00,659.89 976.00,658.58 976.00,658.58
             976.00,658.58 971.00,658.58 971.00,658.58
             971.00,658.58 951.00,658.00 951.00,658.00
             951.00,658.00 937.42,657.38 937.42,657.38
             937.42,657.38 916.00,657.38 916.00,657.38
             916.00,657.38 908.00,657.38 908.00,657.38
             908.00,657.38 899.00,657.38 899.00,657.38
             899.00,657.38 878.00,654.43 878.00,654.43
             878.00,654.43 865.00,653.83 865.00,653.83
             865.00,653.83 844.00,651.24 844.00,651.24
             836.73,650.87 832.95,652.32 829.00,652.27
             829.00,652.27 823.00,652.27 823.00,652.27
             823.00,652.27 809.00,653.09 809.00,653.09
             809.00,653.09 801.00,653.92 801.00,653.92
             801.00,653.92 790.00,653.00 790.00,653.00
             767.81,652.74 745.61,646.19 724.00,641.51
             724.00,641.51 704.00,638.64 704.00,638.64
             704.00,638.64 685.00,633.43 685.00,633.43
             685.00,633.43 678.01,629.75 678.01,629.75
             678.01,629.75 671.72,628.54 671.72,628.54
             671.72,628.54 647.00,617.97 647.00,617.97
             647.00,617.97 637.00,615.67 637.00,615.67
             633.92,614.95 626.28,612.28 623.55,614.06
             622.11,615.00 616.16,623.95 620.57,628.46
             620.57,628.46 631.58,635.28 631.58,635.28
             631.58,635.28 652.16,651.83 652.16,651.83
             654.88,653.22 665.63,654.99 669.00,655.00 Z
           M 625.00,615.00
           C 625.00,615.00 625.00,616.00 625.00,616.00
             625.00,616.00 624.00,615.00 624.00,615.00
             624.00,615.00 625.00,615.00 625.00,615.00 Z
           M 1177.00,695.88
           C 1177.00,695.88 1153.00,707.01 1153.00,707.01
             1153.00,707.01 1147.17,709.41 1147.17,709.41
             1147.17,709.41 1139.99,714.74 1139.99,714.74
             1139.99,714.74 1120.00,724.91 1120.00,724.91
             1120.00,724.91 1111.00,727.83 1111.00,727.83
             1111.00,727.83 1097.00,735.58 1097.00,735.58
             1097.00,735.58 1065.00,747.22 1065.00,747.22
             1065.00,747.22 1043.00,751.37 1043.00,751.37
             1043.00,751.37 1036.00,753.47 1036.00,753.47
             1036.00,753.47 1027.00,754.75 1027.00,754.75
             1016.70,756.47 1013.16,757.94 1002.00,758.00
             992.62,758.05 985.01,760.15 976.00,761.56
             967.16,762.95 957.94,763.90 949.00,764.00
             949.00,764.00 938.00,764.96 938.00,764.96
             938.00,764.96 903.00,766.06 903.00,766.06
             903.00,766.06 886.17,766.06 886.17,766.06
             886.17,766.06 867.00,764.17 867.00,764.17
             867.00,764.17 849.00,762.83 849.00,762.83
             849.00,762.83 842.00,761.51 842.00,761.51
             842.00,761.51 833.00,760.85 833.00,760.85
             833.00,760.85 815.00,758.47 815.00,758.47
             806.79,757.79 791.22,766.61 802.06,774.89
             806.72,778.46 812.52,777.97 818.00,779.23
             818.00,779.23 829.96,782.49 829.96,782.49
             829.96,782.49 839.01,783.19 839.01,783.19
             839.01,783.19 847.00,785.47 847.00,785.47
             847.00,785.47 854.00,786.51 854.00,786.51
             854.00,786.51 869.00,790.54 869.00,790.54
             869.00,790.54 878.00,791.47 878.00,791.47
             878.00,791.47 886.00,793.63 886.00,793.63
             886.00,793.63 893.00,794.37 893.00,794.37
             893.00,794.37 910.00,797.23 910.00,797.23
             910.00,797.23 929.00,797.23 929.00,797.23
             929.00,797.23 943.00,797.85 943.00,797.85
             943.00,797.85 968.00,796.00 968.00,796.00
             968.00,796.00 981.00,796.00 981.00,796.00
             981.00,796.00 996.00,794.52 996.00,794.52
             996.00,794.52 1000.00,794.52 1000.00,794.52
             1000.00,794.52 1006.00,793.12 1006.00,793.12
             1006.00,793.12 1023.00,791.83 1023.00,791.83
             1028.54,791.23 1028.55,790.09 1036.00,790.00
             1053.07,789.80 1053.57,790.05 1070.00,784.50
             1070.00,784.50 1080.00,781.13 1080.00,781.13
             1080.00,781.13 1094.00,772.77 1094.00,772.77
             1094.00,772.77 1101.00,769.82 1101.00,769.82
             1101.00,769.82 1110.00,765.10 1110.00,765.10
             1110.00,765.10 1126.72,759.12 1126.72,759.12
             1126.72,759.12 1162.00,736.63 1162.00,736.63
             1162.00,736.63 1179.00,726.54 1179.00,726.54
             1179.00,726.54 1183.83,724.47 1183.83,724.47
             1189.18,721.93 1192.05,717.27 1194.13,712.00
             1195.21,709.23 1196.17,707.07 1195.72,704.00
             1194.40,695.02 1184.15,693.91 1177.00,695.88 Z
           M 296.00,1133.00
           C 293.03,1134.99 293.29,1135.51 293.00,1139.00
             286.65,1141.23 291.83,1142.17 287.83,1151.00
             287.83,1151.00 285.28,1158.00 285.28,1158.00
             285.28,1158.00 280.86,1167.28 280.86,1167.28
             278.02,1173.65 273.94,1187.54 273.09,1194.42
             273.09,1194.42 271.08,1208.00 271.08,1208.00
             271.08,1212.21 272.43,1215.22 271.79,1220.00
             271.79,1220.00 270.10,1228.00 270.10,1228.00
             270.10,1228.00 269.32,1244.00 269.32,1244.00
             269.32,1244.00 267.54,1251.00 267.54,1251.00
             267.54,1251.00 271.64,1267.00 271.64,1267.00
             271.64,1267.00 271.64,1274.00 271.64,1274.00
             271.64,1274.00 272.76,1282.00 272.76,1282.00
             273.04,1284.95 272.13,1286.73 272.76,1290.00
             274.76,1302.18 281.71,1316.35 287.79,1327.00
             287.79,1327.00 291.58,1334.58 291.58,1334.58
             291.58,1334.58 297.69,1340.58 297.69,1340.58
             301.21,1344.52 302.38,1353.11 309.00,1357.00
             308.16,1362.76 311.66,1365.74 314.05,1370.83
             314.05,1370.83 316.50,1376.61 316.50,1376.61
             318.98,1380.57 321.74,1382.31 324.13,1385.28
             324.13,1385.28 336.44,1399.79 336.44,1399.79
             336.44,1399.79 350.26,1410.27 350.26,1410.27
             360.29,1420.74 354.62,1414.37 363.90,1420.26
             368.81,1423.38 367.30,1426.12 374.00,1425.00
             378.51,1433.49 384.72,1433.84 393.00,1435.25
             397.46,1436.01 397.09,1436.86 402.00,1436.00
             404.36,1439.54 406.34,1438.85 410.00,1440.59
             418.80,1444.78 419.66,1443.57 428.00,1445.70
             434.03,1447.24 437.45,1449.33 444.00,1448.00
             444.93,1449.55 445.18,1450.48 447.12,1451.07
             447.12,1451.07 461.00,1451.07 461.00,1451.07
             469.95,1450.94 480.57,1452.70 489.00,1449.58
             492.28,1448.36 498.78,1442.93 498.11,1438.95
             497.75,1436.83 494.91,1434.37 493.42,1432.85
             487.45,1426.75 478.42,1424.07 471.00,1419.59
             461.96,1414.14 451.72,1411.62 442.00,1407.59
             442.00,1407.59 434.00,1403.83 434.00,1403.83
             434.00,1403.83 426.09,1401.97 426.09,1401.97
             426.09,1401.97 418.96,1398.01 418.96,1398.01
             418.96,1398.01 409.00,1394.47 409.00,1394.47
             409.00,1394.47 393.09,1385.03 393.09,1385.03
             393.09,1385.03 388.72,1381.97 388.72,1381.97
             388.72,1381.97 382.17,1379.69 382.17,1379.69
             378.64,1377.84 375.34,1373.27 366.00,1372.00
             366.00,1372.00 364.42,1369.04 364.42,1369.04
             364.42,1369.04 349.17,1362.70 349.17,1362.70
             349.17,1362.70 344.83,1359.51 344.83,1359.51
             344.83,1359.51 338.51,1355.47 338.51,1355.47
             338.51,1355.47 329.00,1346.00 329.00,1346.00
             332.23,1339.03 327.29,1341.91 323.47,1336.91
             320.86,1333.51 320.45,1330.25 318.30,1327.00
             316.03,1323.57 313.76,1322.23 311.72,1318.00
             308.08,1310.43 308.87,1303.80 307.31,1297.01
             307.31,1297.01 305.37,1289.08 305.37,1289.08
             304.65,1287.15 303.29,1285.98 303.17,1283.91
             302.80,1282.07 303.81,1280.32 303.17,1278.00
             302.70,1275.09 300.17,1273.11 299.19,1269.00
             299.19,1269.00 295.97,1239.96 295.97,1239.96
             295.92,1232.49 294.87,1225.00 295.97,1217.58
             295.97,1217.58 300.73,1195.00 300.73,1195.00
             300.73,1195.00 305.87,1181.00 305.87,1181.00
             305.87,1181.00 307.09,1174.42 307.09,1174.42
             307.09,1174.42 310.70,1162.00 310.70,1162.00
             310.70,1162.00 315.83,1151.00 315.83,1151.00
             315.83,1151.00 317.53,1144.17 317.53,1144.17
             317.53,1144.17 321.75,1134.00 321.75,1134.00
             321.75,1134.00 329.01,1122.00 329.01,1122.00
             329.01,1122.00 334.17,1111.00 334.17,1111.00
             334.17,1111.00 344.61,1096.18 344.61,1096.18
             347.55,1092.69 349.08,1092.97 352.46,1087.96
             356.31,1082.26 355.17,1080.86 357.55,1077.00
             357.55,1077.00 378.29,1048.59 378.29,1048.59
             378.29,1048.59 388.08,1039.54 388.08,1039.54
             388.08,1039.54 393.41,1035.57 393.41,1035.57
             399.72,1029.69 404.97,1022.19 412.04,1017.12
             412.04,1017.12 442.09,998.69 442.09,998.69
             442.09,998.69 458.00,992.06 458.00,992.06
             458.00,992.06 465.00,987.53 465.00,987.53
             465.00,987.53 471.91,984.60 471.91,984.60
             471.91,984.60 478.09,980.94 478.09,980.94
             478.09,980.94 495.00,975.20 495.00,975.20
             495.00,975.20 502.00,972.24 502.00,972.24
             502.00,972.24 518.00,966.90 518.00,966.90
             518.00,966.90 525.00,965.07 525.00,965.07
             525.00,965.07 530.00,962.72 530.00,962.72
             530.00,962.72 542.00,959.97 542.00,959.97
             542.00,959.97 559.72,952.54 559.72,952.54
             559.72,952.54 565.04,951.06 565.04,951.06
             567.47,950.08 569.24,948.49 574.00,946.89
             574.00,946.89 591.04,943.22 591.04,943.22
             600.73,940.42 599.28,937.66 615.00,933.90
             615.00,933.90 653.00,926.92 653.00,926.92
             653.00,926.92 669.28,923.90 669.28,923.90
             677.07,923.64 673.57,923.43 680.00,921.54
             680.00,921.54 690.00,919.51 690.00,919.51
             690.00,919.51 698.00,918.61 698.00,918.61
             698.00,918.61 706.00,916.04 706.00,916.04
             706.00,916.04 746.00,908.94 746.00,908.94
             746.00,908.94 766.00,908.94 766.00,908.94
             766.00,908.94 780.00,907.22 780.00,907.22
             780.00,907.22 813.00,907.22 813.00,907.22
             822.16,906.89 822.23,905.03 828.00,904.21
             828.00,904.21 847.00,902.83 847.00,902.83
             847.00,902.83 860.00,900.61 860.00,900.61
             860.00,900.61 876.00,899.15 876.00,899.15
             885.56,895.25 884.66,884.98 876.00,880.01
             871.48,877.41 869.77,879.16 865.00,878.82
             865.00,878.82 833.00,876.96 833.00,876.96
             833.00,876.96 825.00,876.18 825.00,876.18
             825.00,876.18 796.00,879.08 796.00,879.08
             796.00,879.08 782.00,879.08 782.00,879.08
             782.00,879.08 772.00,880.29 772.00,880.29
             772.00,880.29 751.00,879.00 751.00,879.00
             740.06,878.88 720.13,884.45 709.00,887.26
             709.00,887.26 690.00,891.70 690.00,891.70
             690.00,891.70 681.00,892.63 681.00,892.63
             681.00,892.63 652.00,901.45 652.00,901.45
             652.00,901.45 635.00,903.46 635.00,903.46
             635.00,903.46 606.00,909.58 606.00,909.58
             606.00,909.58 577.00,915.01 577.00,915.01
             564.87,918.38 566.54,920.40 559.00,923.45
             559.00,923.45 544.00,929.51 544.00,929.51
             544.00,929.51 529.00,933.80 529.00,933.80
             529.00,933.80 518.83,939.53 518.83,939.53
             518.83,939.53 501.09,944.99 501.09,944.99
             501.09,944.99 484.00,952.30 484.00,952.30
             484.00,952.30 473.00,954.87 473.00,954.87
             455.99,961.39 440.66,971.08 425.00,980.14
             425.00,980.14 414.17,985.28 414.17,985.28
             414.17,985.28 408.91,988.69 408.91,988.69
             402.50,992.29 400.27,993.18 394.04,997.86
             394.04,997.86 388.72,1002.12 388.72,1002.12
             388.72,1002.12 382.00,1006.34 382.00,1006.34
             382.00,1006.34 366.00,1019.74 366.00,1019.74
             366.00,1019.74 350.63,1031.47 350.63,1031.47
             350.63,1031.47 339.52,1049.00 339.52,1049.00
             339.52,1049.00 333.55,1056.00 333.55,1056.00
             333.55,1056.00 329.55,1061.58 329.55,1061.58
             329.55,1061.58 323.94,1068.00 323.94,1068.00
             323.94,1068.00 316.87,1079.83 316.87,1079.83
             316.87,1079.83 313.42,1085.09 313.42,1085.09
             313.42,1085.09 309.91,1096.00 309.91,1096.00
             309.91,1096.00 305.90,1104.00 305.90,1104.00
             305.90,1104.00 304.17,1110.00 304.17,1110.00
             304.17,1110.00 299.57,1121.00 299.57,1121.00
             297.15,1126.54 294.88,1126.46 296.00,1133.00 Z
           M 874.00,929.26
           C 874.00,929.26 865.00,930.68 865.00,930.68
             865.00,930.68 847.00,935.63 847.00,935.63
             847.00,935.63 802.00,943.28 802.00,943.28
             802.00,943.28 778.00,948.35 778.00,948.35
             778.00,948.35 769.00,951.32 769.00,951.32
             769.00,951.32 762.00,952.37 762.00,952.37
             762.00,952.37 744.00,955.83 744.00,955.83
             744.00,955.83 732.00,956.80 732.00,956.80
             732.00,956.80 709.91,962.74 709.91,962.74
             709.91,962.74 705.00,964.65 705.00,964.65
             705.00,964.65 699.00,965.65 699.00,965.65
             699.00,965.65 685.00,970.55 685.00,970.55
             685.00,970.55 677.00,972.40 677.00,972.40
             677.00,972.40 658.00,981.36 658.00,981.36
             658.00,981.36 641.00,987.35 641.00,987.35
             641.00,987.35 633.00,991.90 633.00,991.90
             633.00,991.90 626.00,994.93 626.00,994.93
             626.00,994.93 615.00,1001.28 615.00,1001.28
             615.00,1001.28 604.00,1005.76 604.00,1005.76
             604.00,1005.76 567.00,1030.95 567.00,1030.95
             567.00,1030.95 548.06,1044.00 548.06,1044.00
             542.94,1048.44 543.30,1051.57 537.87,1056.55
             537.87,1056.55 524.05,1068.09 524.05,1068.09
             524.05,1068.09 517.74,1075.52 517.74,1075.52
             517.74,1075.52 507.84,1083.31 507.84,1083.31
             507.84,1083.31 488.25,1106.00 488.25,1106.00
             481.76,1115.75 480.02,1126.66 475.16,1137.00
             475.16,1137.00 466.27,1155.00 466.27,1155.00
             466.27,1155.00 464.00,1160.96 464.00,1160.96
             462.64,1163.47 460.60,1164.74 459.59,1167.17
             459.59,1167.17 457.95,1175.00 457.95,1175.00
             457.95,1175.00 452.60,1186.96 452.60,1186.96
             452.60,1186.96 449.77,1203.00 449.77,1203.00
             448.04,1210.44 445.47,1214.67 445.10,1223.00
             444.96,1226.31 445.54,1227.94 445.83,1231.00
             445.83,1231.00 447.19,1245.00 447.19,1245.00
             447.19,1245.00 448.63,1251.00 448.63,1251.00
             448.63,1251.00 450.14,1267.00 450.14,1267.00
             450.55,1280.64 452.85,1279.11 454.07,1284.42
             454.07,1284.42 454.07,1289.01 454.07,1289.01
             454.07,1289.01 455.79,1296.00 455.79,1296.00
             455.79,1296.00 456.32,1303.00 456.32,1303.00
             456.32,1303.00 460.11,1317.00 460.11,1317.00
             460.11,1317.00 461.73,1324.87 461.73,1324.87
             462.78,1327.34 464.44,1328.06 465.72,1330.26
             465.72,1330.26 468.52,1337.00 468.52,1337.00
             471.33,1342.62 475.04,1348.77 478.88,1353.75
             483.07,1359.20 501.12,1375.32 507.00,1380.42
             507.00,1380.42 519.00,1390.91 519.00,1390.91
             519.00,1390.91 529.00,1397.44 529.00,1397.44
             529.00,1397.44 538.27,1405.42 538.27,1405.42
             538.27,1405.42 544.28,1408.17 544.28,1408.17
             544.28,1408.17 551.00,1413.05 551.00,1413.05
             563.75,1421.10 585.60,1431.33 600.00,1435.63
             600.00,1435.63 613.00,1438.28 613.00,1438.28
             613.00,1438.28 621.00,1441.14 621.00,1441.14
             627.50,1442.83 629.36,1441.99 635.00,1442.42
             638.47,1442.69 638.28,1443.72 645.00,1443.82
             645.00,1443.82 670.00,1443.82 670.00,1443.82
             670.00,1443.82 684.00,1440.70 684.00,1440.70
             684.00,1440.70 689.72,1438.36 689.72,1438.36
             689.72,1438.36 695.04,1437.48 695.04,1437.48
             695.04,1437.48 700.00,1435.68 700.00,1435.68
             707.36,1433.41 715.53,1432.14 721.96,1427.46
             721.96,1427.46 733.37,1416.70 733.37,1416.70
             733.37,1416.70 737.38,1411.00 737.38,1411.00
             742.04,1405.02 744.98,1401.65 747.19,1394.00
             747.19,1394.00 748.44,1387.58 748.44,1387.58
             749.65,1383.96 752.85,1380.34 750.67,1376.13
             746.39,1367.86 734.42,1374.57 729.09,1377.66
             718.63,1383.72 709.20,1391.64 698.00,1396.45
             694.02,1398.16 693.43,1397.67 690.00,1398.72
             690.00,1398.72 681.00,1402.47 681.00,1402.47
             681.00,1402.47 661.00,1406.58 661.00,1406.58
             661.00,1406.58 650.00,1409.16 650.00,1409.16
             650.00,1409.16 642.00,1409.16 642.00,1409.16
             642.00,1409.16 634.16,1410.97 634.16,1410.97
             629.08,1411.74 621.11,1412.25 616.00,1412.10
             616.00,1412.10 607.00,1412.10 607.00,1412.10
             600.59,1411.18 597.49,1408.44 592.91,1406.75
             592.91,1406.75 575.00,1400.77 575.00,1400.77
             565.25,1396.18 560.33,1392.22 551.72,1386.45
             551.72,1386.45 543.46,1382.18 543.46,1382.18
             541.01,1380.15 540.07,1376.88 537.54,1374.96
             536.12,1373.89 532.64,1372.89 528.28,1369.29
             528.28,1369.29 502.27,1344.09 502.27,1344.09
             499.35,1340.92 495.15,1337.62 493.09,1334.00
             490.46,1329.39 491.62,1326.02 489.47,1321.00
             489.47,1321.00 483.84,1311.00 483.84,1311.00
             483.84,1311.00 480.62,1296.00 480.62,1296.00
             478.93,1290.55 476.76,1287.11 477.18,1281.00
             477.18,1281.00 477.70,1275.00 477.70,1275.00
             477.19,1268.18 470.47,1258.18 469.21,1249.00
             468.14,1241.26 470.74,1238.07 471.94,1232.00
             471.94,1232.00 471.94,1225.00 471.94,1225.00
             471.94,1225.00 473.66,1218.09 473.66,1218.09
             474.67,1210.95 472.75,1209.45 476.32,1200.00
             480.30,1189.48 482.77,1186.30 487.59,1177.00
             487.59,1177.00 489.98,1171.00 489.98,1171.00
             489.98,1171.00 493.04,1166.00 493.04,1166.00
             493.04,1166.00 495.26,1160.00 495.26,1160.00
             495.26,1160.00 503.15,1144.00 503.15,1144.00
             503.15,1144.00 517.50,1123.83 517.50,1123.83
             519.78,1120.53 519.08,1119.79 522.80,1115.09
             532.33,1103.07 552.42,1083.76 564.42,1074.13
             564.42,1074.13 569.72,1070.50 569.72,1070.50
             573.91,1067.21 573.77,1065.74 582.00,1059.86
             582.00,1059.86 599.96,1049.20 599.96,1049.20
             599.96,1049.20 607.09,1042.75 607.09,1042.75
             607.09,1042.75 613.99,1038.48 613.99,1038.48
             613.99,1038.48 630.00,1027.86 630.00,1027.86
             644.17,1020.32 648.61,1021.52 654.91,1018.18
             654.91,1018.18 662.04,1013.17 662.04,1013.17
             664.54,1011.52 676.20,1005.96 679.00,1004.97
             679.00,1004.97 688.00,1003.28 688.00,1003.28
             688.00,1003.28 695.00,999.87 695.00,999.87
             695.00,999.87 705.00,997.63 705.00,997.63
             705.00,997.63 721.00,992.04 721.00,992.04
             721.00,992.04 728.00,990.52 728.00,990.52
             728.00,990.52 734.00,988.41 734.00,988.41
             734.00,988.41 739.00,987.42 739.00,987.42
             739.00,987.42 750.00,982.09 750.00,982.09
             750.00,982.09 764.00,978.63 764.00,978.63
             764.00,978.63 770.00,976.49 770.00,976.49
             770.00,976.49 777.00,975.37 777.00,975.37
             777.00,975.37 798.00,969.87 798.00,969.87
             798.00,969.87 804.00,969.37 804.00,969.37
             814.68,967.31 813.75,963.71 829.00,963.98
             839.63,964.16 843.97,961.33 852.99,960.10
             852.99,960.10 863.01,959.51 863.01,959.51
             863.01,959.51 875.92,956.19 875.92,956.19
             880.27,955.43 884.83,955.22 888.91,953.30
             896.01,949.97 898.40,939.52 893.57,934.30
             890.88,931.39 883.91,929.34 880.00,929.26
             877.64,928.94 876.28,929.15 874.00,929.26 Z
           M 718.00,1058.00
           C 709.16,1058.63 708.55,1062.02 702.00,1066.28
             702.00,1066.28 696.28,1069.47 696.28,1069.47
             687.51,1075.69 680.04,1086.55 673.55,1095.00
             673.55,1095.00 662.49,1109.72 662.49,1109.72
             662.49,1109.72 645.98,1130.28 645.98,1130.28
             645.98,1130.28 635.22,1153.00 635.22,1153.00
             633.70,1156.81 633.89,1163.46 633.06,1168.00
             633.06,1168.00 629.44,1180.00 629.44,1180.00
             629.44,1180.00 624.04,1190.00 624.04,1190.00
             621.63,1196.22 619.07,1214.01 619.00,1221.00
             619.00,1221.00 620.00,1246.00 620.00,1246.00
             620.10,1253.72 621.27,1253.32 623.55,1260.00
             628.34,1274.02 627.65,1270.57 634.41,1283.00
             634.41,1283.00 637.52,1288.83 637.52,1288.83
             642.14,1295.18 649.90,1299.44 656.00,1304.13
             656.00,1304.13 667.00,1313.19 667.00,1313.19
             667.00,1313.19 674.96,1317.33 674.96,1317.33
             677.50,1318.98 679.50,1321.36 682.09,1322.58
             682.09,1322.58 700.00,1326.54 700.00,1326.54
             700.00,1326.54 708.00,1329.76 708.00,1329.76
             708.00,1329.76 736.00,1337.29 736.00,1337.29
             736.00,1337.29 756.00,1338.68 756.00,1338.68
             756.00,1338.68 767.00,1338.00 767.00,1338.00
             767.00,1338.00 782.00,1338.51 782.00,1338.51
             782.00,1338.51 819.00,1333.48 819.00,1333.48
             819.00,1333.48 836.00,1327.83 836.00,1327.83
             836.00,1327.83 843.00,1326.13 843.00,1326.13
             843.00,1326.13 849.00,1323.46 849.00,1323.46
             849.00,1323.46 858.83,1321.46 858.83,1321.46
             858.83,1321.46 874.04,1314.66 874.04,1314.66
             877.88,1312.71 882.60,1307.99 886.00,1305.20
             886.00,1305.20 896.82,1298.37 896.82,1298.37
             896.82,1298.37 904.09,1290.46 904.09,1290.46
             904.09,1290.46 921.98,1276.63 921.98,1276.63
             921.98,1276.63 940.80,1256.00 940.80,1256.00
             940.80,1256.00 965.78,1214.00 965.78,1214.00
             965.78,1214.00 976.00,1198.00 976.00,1198.00
             976.00,1198.00 982.10,1189.00 982.10,1189.00
             982.10,1189.00 994.13,1162.00 994.13,1162.00
             994.13,1162.00 996.26,1154.00 996.26,1154.00
             996.26,1154.00 1001.19,1143.00 1001.19,1143.00
             1003.32,1137.26 1004.92,1125.22 1005.00,1119.00
             1005.00,1119.00 1005.00,1115.00 1005.00,1115.00
             1004.99,1111.51 1004.35,1102.10 1003.46,1099.00
             1003.46,1099.00 1000.97,1092.00 1000.97,1092.00
             1000.97,1092.00 999.45,1083.00 999.45,1083.00
             999.45,1083.00 996.37,1076.00 996.37,1076.00
             993.97,1068.92 989.59,1062.10 981.00,1063.15
             971.19,1064.34 969.17,1074.13 969.22,1082.42
             969.22,1082.42 969.76,1092.00 969.76,1092.00
             969.76,1092.00 967.79,1100.00 967.79,1100.00
             967.79,1100.00 967.79,1106.58 967.79,1106.58
             967.79,1106.58 964.15,1124.00 964.15,1124.00
             964.15,1124.00 960.97,1131.00 960.97,1131.00
             960.97,1131.00 958.57,1137.96 958.57,1137.96
             958.57,1137.96 946.28,1162.96 946.28,1162.96
             946.28,1162.96 938.26,1175.17 938.26,1175.17
             938.26,1175.17 933.55,1187.00 933.55,1187.00
             933.55,1187.00 928.34,1197.00 928.34,1197.00
             928.34,1197.00 913.42,1221.42 913.42,1221.42
             913.42,1221.42 910.42,1227.91 910.42,1227.91
             910.42,1227.91 906.26,1233.17 906.26,1233.17
             900.53,1242.43 899.58,1249.98 891.92,1258.99
             891.92,1258.99 869.68,1281.12 869.68,1281.12
             869.68,1281.12 858.04,1287.28 858.04,1287.28
             854.27,1289.65 853.29,1291.73 848.99,1293.82
             841.85,1297.28 834.50,1298.76 827.00,1300.97
             827.00,1300.97 816.00,1305.46 816.00,1305.46
             816.00,1305.46 809.00,1306.68 809.00,1306.68
             809.00,1306.68 786.00,1313.24 786.00,1313.24
             786.00,1313.24 779.04,1313.24 779.04,1313.24
             768.29,1314.58 768.81,1315.02 757.00,1315.00
             747.66,1314.98 749.68,1313.81 745.00,1313.38
             745.00,1313.38 739.00,1313.38 739.00,1313.38
             739.00,1313.38 733.00,1311.49 733.00,1311.49
             733.00,1311.49 725.00,1309.82 725.00,1309.82
             725.00,1309.82 713.04,1305.52 713.04,1305.52
             704.51,1303.53 701.83,1305.37 693.00,1301.03
             675.93,1292.65 676.87,1291.75 663.58,1279.34
             658.69,1274.77 655.74,1274.71 650.81,1267.00
             647.03,1261.10 647.85,1259.43 646.16,1254.00
             646.16,1254.00 642.82,1244.00 642.82,1244.00
             640.93,1237.09 641.30,1222.02 642.82,1215.00
             642.82,1215.00 648.28,1201.00 648.28,1201.00
             648.28,1201.00 655.09,1178.00 655.09,1178.00
             657.72,1172.07 661.06,1167.00 664.51,1161.58
             664.51,1161.58 666.96,1156.00 666.96,1156.00
             666.96,1156.00 671.93,1148.09 671.93,1148.09
             671.93,1148.09 688.04,1127.91 688.04,1127.91
             688.04,1127.91 700.54,1109.30 700.54,1109.30
             704.99,1103.45 722.40,1086.12 728.29,1081.40
             728.29,1081.40 753.96,1064.82 753.96,1064.82
             753.96,1064.82 759.28,1060.85 759.28,1060.85
             759.28,1060.85 767.00,1056.10 767.00,1056.10
             767.00,1056.10 776.00,1049.32 776.00,1049.32
             776.00,1049.32 810.00,1031.92 810.00,1031.92
             810.00,1031.92 817.00,1028.05 817.00,1028.05
             817.00,1028.05 835.00,1021.05 835.00,1021.05
             835.00,1021.05 841.00,1017.99 841.00,1017.99
             841.00,1017.99 848.00,1015.46 848.00,1015.46
             848.00,1015.46 860.00,1009.66 860.00,1009.66
             864.66,1007.91 873.14,1005.33 876.40,1001.45
             879.38,997.90 878.36,988.46 872.96,986.12
             870.51,985.07 868.29,986.17 866.00,987.00
             862.71,982.17 859.81,985.91 855.00,987.52
             855.00,987.52 847.17,989.51 847.17,989.51
             847.17,989.51 836.00,995.19 836.00,995.19
             836.00,995.19 830.00,996.54 830.00,996.54
             830.00,996.54 812.00,1004.50 812.00,1004.50
             812.00,1004.50 803.00,1007.22 803.00,1007.22
             803.00,1007.22 789.42,1014.39 789.42,1014.39
             789.42,1014.39 783.99,1018.25 783.99,1018.25
             783.99,1018.25 772.00,1023.09 772.00,1023.09
             772.00,1023.09 752.00,1034.20 752.00,1034.20
             752.00,1034.20 746.00,1038.11 746.00,1038.11
             746.00,1038.11 739.00,1041.25 739.00,1041.25
             739.00,1041.25 727.00,1049.00 727.00,1049.00
             722.70,1051.76 719.63,1052.95 718.00,1058.00 Z
           M 872.00,987.00
           C 872.00,987.00 872.00,988.00 872.00,988.00
             872.00,988.00 871.00,987.00 871.00,987.00
             871.00,987.00 872.00,987.00 872.00,987.00 Z
           M 270.00,1250.00
           C 270.00,1250.00 270.00,1251.00 270.00,1251.00
             270.00,1251.00 269.00,1250.00 269.00,1250.00
             269.00,1250.00 270.00,1250.00 270.00,1250.00 Z
           M 869.00,1284.00
           C 869.00,1284.00 869.00,1285.00 869.00,1285.00
             869.00,1285.00 868.00,1284.00 868.00,1284.00
             868.00,1284.00 869.00,1284.00 869.00,1284.00 Z
           M 329.00,1342.00
           C 329.00,1342.00 329.00,1343.00 329.00,1343.00
             329.00,1343.00 328.00,1342.00 328.00,1342.00
             328.00,1342.00 329.00,1342.00 329.00,1342.00 Z
           M 692.00,1400.00
           C 692.00,1400.00 692.00,1401.00 692.00,1401.00
             692.00,1401.00 691.00,1400.00 691.00,1400.00
             691.00,1400.00 692.00,1400.00 692.00,1400.00 Z
           M 497.00,1439.00
           C 497.00,1439.00 497.00,1440.00 497.00,1440.00
             497.00,1440.00 496.00,1439.00 496.00,1439.00
             496.00,1439.00 497.00,1439.00 497.00,1439.00 Z
           M 2005.00,1535.00
           C 2005.00,1535.00 2005.00,1536.00 2005.00,1536.00
             2005.00,1536.00 2006.00,1535.00 2006.00,1535.00
             2006.00,1535.00 2005.00,1535.00 2005.00,1535.00 Z" />
</svg>
